<mxfile host="app.diagrams.net" modified="2021-07-25T02:13:10.999Z" agent="5.0 (Windows)" etag="LwSpp4dCWt5AeeQtUCsG" version="14.8.5" type="github">
  <diagram id="9VXw7aCaLRtWzQimCSuJ" name="Page-1">
    <mxGraphModel dx="2031" dy="1090" grid="1" gridSize="10" guides="1" tooltips="1" connect="1" arrows="1" fold="1" page="1" pageScale="1" pageWidth="4681" pageHeight="3300" math="0" shadow="0">
      <root>
        <mxCell id="0" />
        <mxCell id="1" parent="0" />
        <mxCell id="cXPkC3EtGzi62W7Gksbs-1" style="edgeStyle=orthogonalEdgeStyle;curved=1;rounded=0;orthogonalLoop=1;jettySize=auto;html=1;entryX=0;entryY=0;entryDx=0;entryDy=0;exitX=1;exitY=0.5;exitDx=0;exitDy=0;fontSize=20;" edge="1" parent="1">
          <mxGeometry relative="1" as="geometry">
            <Array as="points">
              <mxPoint x="368" y="228" />
              <mxPoint x="368" y="297" />
            </Array>
            <mxPoint x="338" y="227.5" as="sourcePoint" />
            <mxPoint x="440" y="297" as="targetPoint" />
          </mxGeometry>
        </mxCell>
        <mxCell id="cXPkC3EtGzi62W7Gksbs-2" style="edgeStyle=orthogonalEdgeStyle;curved=1;rounded=0;orthogonalLoop=1;jettySize=auto;html=1;entryX=0;entryY=0;entryDx=0;entryDy=0;exitX=1;exitY=0.5;exitDx=0;exitDy=0;fontSize=20;" edge="1" parent="1">
          <mxGeometry relative="1" as="geometry">
            <Array as="points">
              <mxPoint x="383" y="362" />
              <mxPoint x="383" y="297" />
            </Array>
            <mxPoint x="338" y="362" as="sourcePoint" />
            <mxPoint x="440" y="297" as="targetPoint" />
          </mxGeometry>
        </mxCell>
        <mxCell id="cXPkC3EtGzi62W7Gksbs-3" value="&lt;div style=&quot;font-size: 20px;&quot;&gt;CNN layers&lt;/div&gt;" style="text;html=1;strokeColor=none;fillColor=none;align=center;verticalAlign=middle;whiteSpace=wrap;rounded=0;fontStyle=1;fontSize=20;" vertex="1" parent="1">
          <mxGeometry x="515" y="387" width="250" height="20" as="geometry" />
        </mxCell>
        <mxCell id="cXPkC3EtGzi62W7Gksbs-4" value="" style="rounded=0;whiteSpace=wrap;html=1;shadow=1;glass=0;sketch=0;fillColor=#f5f5f5;strokeColor=#666666;fontColor=#333333;fontSize=20;" vertex="1" parent="1">
          <mxGeometry x="440" y="229" width="28" height="26" as="geometry" />
        </mxCell>
        <mxCell id="cXPkC3EtGzi62W7Gksbs-5" style="edgeStyle=orthogonalEdgeStyle;rounded=0;orthogonalLoop=1;jettySize=auto;html=1;fontSize=20;" edge="1" parent="1">
          <mxGeometry relative="1" as="geometry">
            <mxPoint x="522" y="293.8600000000001" as="sourcePoint" />
            <mxPoint x="585" y="293.8600000000001" as="targetPoint" />
            <Array as="points">
              <mxPoint x="585" y="293.86" />
            </Array>
          </mxGeometry>
        </mxCell>
        <mxCell id="cXPkC3EtGzi62W7Gksbs-6" value="DNA2vec 6kmer by 100d" style="text;html=1;strokeColor=none;fillColor=none;align=center;verticalAlign=middle;whiteSpace=wrap;rounded=0;fontStyle=1;fontSize=20;" vertex="1" parent="1">
          <mxGeometry x="402" y="380.75" width="160" height="20" as="geometry" />
        </mxCell>
        <mxCell id="cXPkC3EtGzi62W7Gksbs-7" value="" style="whiteSpace=wrap;html=1;aspect=fixed;fillColor=#dae8fc;strokeColor=#6c8ebf;fontSize=20;" vertex="1" parent="1">
          <mxGeometry x="585" y="249" width="30" height="30" as="geometry" />
        </mxCell>
        <mxCell id="cXPkC3EtGzi62W7Gksbs-8" value="" style="whiteSpace=wrap;html=1;aspect=fixed;fillColor=#dae8fc;strokeColor=#6c8ebf;fontSize=20;" vertex="1" parent="1">
          <mxGeometry x="615" y="249" width="30" height="30" as="geometry" />
        </mxCell>
        <mxCell id="cXPkC3EtGzi62W7Gksbs-9" value="" style="whiteSpace=wrap;html=1;aspect=fixed;fillColor=#dae8fc;strokeColor=#6c8ebf;fontSize=20;" vertex="1" parent="1">
          <mxGeometry x="645" y="249" width="30" height="30" as="geometry" />
        </mxCell>
        <mxCell id="cXPkC3EtGzi62W7Gksbs-10" value="" style="whiteSpace=wrap;html=1;aspect=fixed;fillColor=#dae8fc;strokeColor=#6c8ebf;fontSize=20;" vertex="1" parent="1">
          <mxGeometry x="585" y="279" width="30" height="30" as="geometry" />
        </mxCell>
        <mxCell id="cXPkC3EtGzi62W7Gksbs-11" value="" style="whiteSpace=wrap;html=1;aspect=fixed;fillColor=#dae8fc;strokeColor=#6c8ebf;fontSize=20;" vertex="1" parent="1">
          <mxGeometry x="615" y="279" width="30" height="30" as="geometry" />
        </mxCell>
        <mxCell id="cXPkC3EtGzi62W7Gksbs-12" value="" style="whiteSpace=wrap;html=1;aspect=fixed;fillColor=#dae8fc;strokeColor=#6c8ebf;fontSize=20;" vertex="1" parent="1">
          <mxGeometry x="645" y="279" width="30" height="30" as="geometry" />
        </mxCell>
        <mxCell id="cXPkC3EtGzi62W7Gksbs-13" value="" style="whiteSpace=wrap;html=1;aspect=fixed;fillColor=#dae8fc;strokeColor=#6c8ebf;fontSize=20;" vertex="1" parent="1">
          <mxGeometry x="585" y="309" width="30" height="30" as="geometry" />
        </mxCell>
        <mxCell id="cXPkC3EtGzi62W7Gksbs-14" value="" style="whiteSpace=wrap;html=1;aspect=fixed;fillColor=#dae8fc;strokeColor=#6c8ebf;fontSize=20;" vertex="1" parent="1">
          <mxGeometry x="615" y="309" width="30" height="30" as="geometry" />
        </mxCell>
        <mxCell id="cXPkC3EtGzi62W7Gksbs-15" value="" style="whiteSpace=wrap;html=1;aspect=fixed;fillColor=#dae8fc;strokeColor=#6c8ebf;fontSize=20;" vertex="1" parent="1">
          <mxGeometry x="645" y="309" width="30" height="30" as="geometry" />
        </mxCell>
        <mxCell id="cXPkC3EtGzi62W7Gksbs-16" value="" style="whiteSpace=wrap;html=1;aspect=fixed;fillColor=#d5e8d4;strokeColor=#82b366;fontSize=20;" vertex="1" parent="1">
          <mxGeometry x="595" y="259" width="30" height="30" as="geometry" />
        </mxCell>
        <mxCell id="cXPkC3EtGzi62W7Gksbs-17" value="" style="whiteSpace=wrap;html=1;aspect=fixed;fillColor=#d5e8d4;strokeColor=#82b366;fontSize=20;" vertex="1" parent="1">
          <mxGeometry x="625" y="259" width="30" height="30" as="geometry" />
        </mxCell>
        <mxCell id="cXPkC3EtGzi62W7Gksbs-18" value="" style="whiteSpace=wrap;html=1;aspect=fixed;fillColor=#d5e8d4;strokeColor=#82b366;fontSize=20;" vertex="1" parent="1">
          <mxGeometry x="655" y="259" width="30" height="30" as="geometry" />
        </mxCell>
        <mxCell id="cXPkC3EtGzi62W7Gksbs-19" value="" style="whiteSpace=wrap;html=1;aspect=fixed;fillColor=#d5e8d4;strokeColor=#82b366;fontSize=20;" vertex="1" parent="1">
          <mxGeometry x="595" y="289" width="30" height="30" as="geometry" />
        </mxCell>
        <mxCell id="cXPkC3EtGzi62W7Gksbs-20" value="" style="whiteSpace=wrap;html=1;aspect=fixed;fillColor=#d5e8d4;strokeColor=#82b366;fontSize=20;" vertex="1" parent="1">
          <mxGeometry x="625" y="289" width="30" height="30" as="geometry" />
        </mxCell>
        <mxCell id="cXPkC3EtGzi62W7Gksbs-21" value="" style="whiteSpace=wrap;html=1;aspect=fixed;fillColor=#d5e8d4;strokeColor=#82b366;fontSize=20;" vertex="1" parent="1">
          <mxGeometry x="655" y="289" width="30" height="30" as="geometry" />
        </mxCell>
        <mxCell id="cXPkC3EtGzi62W7Gksbs-22" value="" style="whiteSpace=wrap;html=1;aspect=fixed;fillColor=#d5e8d4;strokeColor=#82b366;fontSize=20;" vertex="1" parent="1">
          <mxGeometry x="595" y="319" width="30" height="30" as="geometry" />
        </mxCell>
        <mxCell id="cXPkC3EtGzi62W7Gksbs-23" value="" style="whiteSpace=wrap;html=1;aspect=fixed;fillColor=#d5e8d4;strokeColor=#82b366;fontSize=20;" vertex="1" parent="1">
          <mxGeometry x="625" y="319" width="30" height="30" as="geometry" />
        </mxCell>
        <mxCell id="cXPkC3EtGzi62W7Gksbs-24" value="" style="whiteSpace=wrap;html=1;aspect=fixed;fillColor=#d5e8d4;strokeColor=#82b366;fontSize=20;" vertex="1" parent="1">
          <mxGeometry x="655" y="319" width="30" height="30" as="geometry" />
        </mxCell>
        <mxCell id="cXPkC3EtGzi62W7Gksbs-25" value="" style="whiteSpace=wrap;html=1;aspect=fixed;fillColor=#ffe6cc;strokeColor=#d79b00;fontSize=20;" vertex="1" parent="1">
          <mxGeometry x="605" y="269" width="30" height="30" as="geometry" />
        </mxCell>
        <mxCell id="cXPkC3EtGzi62W7Gksbs-26" value="" style="whiteSpace=wrap;html=1;aspect=fixed;fillColor=#ffe6cc;strokeColor=#d79b00;fontSize=20;" vertex="1" parent="1">
          <mxGeometry x="635" y="269" width="30" height="30" as="geometry" />
        </mxCell>
        <mxCell id="cXPkC3EtGzi62W7Gksbs-27" value="" style="whiteSpace=wrap;html=1;aspect=fixed;fillColor=#ffe6cc;strokeColor=#d79b00;fontSize=20;" vertex="1" parent="1">
          <mxGeometry x="665" y="269" width="30" height="30" as="geometry" />
        </mxCell>
        <mxCell id="cXPkC3EtGzi62W7Gksbs-28" value="" style="whiteSpace=wrap;html=1;aspect=fixed;fillColor=#ffe6cc;strokeColor=#d79b00;fontSize=20;" vertex="1" parent="1">
          <mxGeometry x="605" y="299" width="30" height="30" as="geometry" />
        </mxCell>
        <mxCell id="cXPkC3EtGzi62W7Gksbs-29" value="" style="whiteSpace=wrap;html=1;aspect=fixed;fillColor=#ffe6cc;strokeColor=#d79b00;fontSize=20;" vertex="1" parent="1">
          <mxGeometry x="635" y="299" width="30" height="30" as="geometry" />
        </mxCell>
        <mxCell id="cXPkC3EtGzi62W7Gksbs-30" value="" style="whiteSpace=wrap;html=1;aspect=fixed;fillColor=#ffe6cc;strokeColor=#d79b00;fontSize=20;" vertex="1" parent="1">
          <mxGeometry x="665" y="299" width="30" height="30" as="geometry" />
        </mxCell>
        <mxCell id="cXPkC3EtGzi62W7Gksbs-31" value="" style="whiteSpace=wrap;html=1;aspect=fixed;fillColor=#ffe6cc;strokeColor=#d79b00;fontSize=20;" vertex="1" parent="1">
          <mxGeometry x="605" y="329" width="30" height="30" as="geometry" />
        </mxCell>
        <mxCell id="cXPkC3EtGzi62W7Gksbs-32" value="" style="whiteSpace=wrap;html=1;aspect=fixed;fillColor=#ffe6cc;strokeColor=#d79b00;fontSize=20;" vertex="1" parent="1">
          <mxGeometry x="635" y="329" width="30" height="30" as="geometry" />
        </mxCell>
        <mxCell id="cXPkC3EtGzi62W7Gksbs-33" value="" style="whiteSpace=wrap;html=1;aspect=fixed;fillColor=#ffe6cc;strokeColor=#d79b00;fontSize=20;" vertex="1" parent="1">
          <mxGeometry x="665" y="329" width="30" height="30" as="geometry" />
        </mxCell>
        <mxCell id="cXPkC3EtGzi62W7Gksbs-34" value="" style="whiteSpace=wrap;html=1;aspect=fixed;fillColor=#f8cecc;strokeColor=#b85450;fontSize=20;" vertex="1" parent="1">
          <mxGeometry x="615" y="279" width="30" height="30" as="geometry" />
        </mxCell>
        <mxCell id="cXPkC3EtGzi62W7Gksbs-35" value="" style="whiteSpace=wrap;html=1;aspect=fixed;fillColor=#f8cecc;strokeColor=#b85450;fontSize=20;" vertex="1" parent="1">
          <mxGeometry x="645" y="279" width="30" height="30" as="geometry" />
        </mxCell>
        <mxCell id="cXPkC3EtGzi62W7Gksbs-36" style="edgeStyle=orthogonalEdgeStyle;rounded=0;orthogonalLoop=1;jettySize=auto;html=1;fontSize=20;" edge="1" parent="1" source="cXPkC3EtGzi62W7Gksbs-37" target="cXPkC3EtGzi62W7Gksbs-98">
          <mxGeometry relative="1" as="geometry">
            <Array as="points">
              <mxPoint x="720" y="305" />
              <mxPoint x="720" y="305" />
            </Array>
          </mxGeometry>
        </mxCell>
        <mxCell id="cXPkC3EtGzi62W7Gksbs-37" value="" style="whiteSpace=wrap;html=1;aspect=fixed;fillColor=#f8cecc;strokeColor=#b85450;fontSize=20;" vertex="1" parent="1">
          <mxGeometry x="675" y="279" width="30" height="30" as="geometry" />
        </mxCell>
        <mxCell id="cXPkC3EtGzi62W7Gksbs-38" value="" style="whiteSpace=wrap;html=1;aspect=fixed;fillColor=#f8cecc;strokeColor=#b85450;fontSize=20;" vertex="1" parent="1">
          <mxGeometry x="615" y="309" width="30" height="30" as="geometry" />
        </mxCell>
        <mxCell id="cXPkC3EtGzi62W7Gksbs-39" value="" style="whiteSpace=wrap;html=1;aspect=fixed;fillColor=#f8cecc;strokeColor=#b85450;fontSize=20;" vertex="1" parent="1">
          <mxGeometry x="645" y="309" width="30" height="30" as="geometry" />
        </mxCell>
        <mxCell id="cXPkC3EtGzi62W7Gksbs-40" value="" style="whiteSpace=wrap;html=1;aspect=fixed;fillColor=#f8cecc;strokeColor=#b85450;fontSize=20;" vertex="1" parent="1">
          <mxGeometry x="675" y="309" width="30" height="30" as="geometry" />
        </mxCell>
        <mxCell id="cXPkC3EtGzi62W7Gksbs-41" value="" style="whiteSpace=wrap;html=1;aspect=fixed;fillColor=#f8cecc;strokeColor=#b85450;fontSize=20;" vertex="1" parent="1">
          <mxGeometry x="615" y="339" width="30" height="30" as="geometry" />
        </mxCell>
        <mxCell id="cXPkC3EtGzi62W7Gksbs-42" value="" style="whiteSpace=wrap;html=1;aspect=fixed;fillColor=#f8cecc;strokeColor=#b85450;fontSize=20;" vertex="1" parent="1">
          <mxGeometry x="645" y="339" width="30" height="30" as="geometry" />
        </mxCell>
        <mxCell id="cXPkC3EtGzi62W7Gksbs-43" value="" style="whiteSpace=wrap;html=1;aspect=fixed;fillColor=#f8cecc;strokeColor=#b85450;fontSize=20;" vertex="1" parent="1">
          <mxGeometry x="675" y="339" width="30" height="30" as="geometry" />
        </mxCell>
        <mxCell id="cXPkC3EtGzi62W7Gksbs-44" value="" style="rounded=0;whiteSpace=wrap;html=1;shadow=1;glass=0;sketch=0;fillColor=#f5f5f5;strokeColor=#666666;fontColor=#333333;fontSize=20;" vertex="1" parent="1">
          <mxGeometry x="468" y="229" width="28" height="26" as="geometry" />
        </mxCell>
        <mxCell id="cXPkC3EtGzi62W7Gksbs-45" value="" style="rounded=0;whiteSpace=wrap;html=1;shadow=1;glass=0;sketch=0;fillColor=#f5f5f5;strokeColor=#666666;fontColor=#333333;fontSize=20;" vertex="1" parent="1">
          <mxGeometry x="496" y="229" width="28" height="26" as="geometry" />
        </mxCell>
        <mxCell id="cXPkC3EtGzi62W7Gksbs-46" value="" style="rounded=0;whiteSpace=wrap;html=1;shadow=1;glass=0;sketch=0;fillColor=#f5f5f5;strokeColor=#666666;fontColor=#333333;fontSize=20;" vertex="1" parent="1">
          <mxGeometry x="440" y="255" width="28" height="26" as="geometry" />
        </mxCell>
        <mxCell id="cXPkC3EtGzi62W7Gksbs-47" value="" style="rounded=0;whiteSpace=wrap;html=1;shadow=1;glass=0;sketch=0;fillColor=#f5f5f5;strokeColor=#666666;fontColor=#333333;fontSize=20;" vertex="1" parent="1">
          <mxGeometry x="468" y="255" width="28" height="26" as="geometry" />
        </mxCell>
        <mxCell id="cXPkC3EtGzi62W7Gksbs-48" value="" style="rounded=0;whiteSpace=wrap;html=1;shadow=1;glass=0;sketch=0;fillColor=#f5f5f5;strokeColor=#666666;fontColor=#333333;fontSize=20;" vertex="1" parent="1">
          <mxGeometry x="496" y="255" width="28" height="26" as="geometry" />
        </mxCell>
        <mxCell id="cXPkC3EtGzi62W7Gksbs-49" value="" style="rounded=0;whiteSpace=wrap;html=1;shadow=1;glass=0;sketch=0;fillColor=#f5f5f5;strokeColor=#666666;fontColor=#333333;fontSize=20;" vertex="1" parent="1">
          <mxGeometry x="440" y="281" width="28" height="26" as="geometry" />
        </mxCell>
        <mxCell id="cXPkC3EtGzi62W7Gksbs-50" value="" style="rounded=0;whiteSpace=wrap;html=1;shadow=1;glass=0;sketch=0;fillColor=#f5f5f5;strokeColor=#666666;fontColor=#333333;fontSize=20;" vertex="1" parent="1">
          <mxGeometry x="468" y="281" width="28" height="26" as="geometry" />
        </mxCell>
        <mxCell id="cXPkC3EtGzi62W7Gksbs-51" value="" style="rounded=0;whiteSpace=wrap;html=1;shadow=1;glass=0;sketch=0;fillColor=#f5f5f5;strokeColor=#666666;fontColor=#333333;fontSize=20;" vertex="1" parent="1">
          <mxGeometry x="496" y="281" width="28" height="26" as="geometry" />
        </mxCell>
        <mxCell id="cXPkC3EtGzi62W7Gksbs-52" value="" style="rounded=0;whiteSpace=wrap;html=1;shadow=1;glass=0;sketch=0;fillColor=#f5f5f5;strokeColor=#666666;fontColor=#333333;fontSize=20;" vertex="1" parent="1">
          <mxGeometry x="440" y="307" width="28" height="26" as="geometry" />
        </mxCell>
        <mxCell id="cXPkC3EtGzi62W7Gksbs-53" value="" style="rounded=0;whiteSpace=wrap;html=1;shadow=1;glass=0;sketch=0;fillColor=#f5f5f5;strokeColor=#666666;fontColor=#333333;fontSize=20;" vertex="1" parent="1">
          <mxGeometry x="468" y="307" width="28" height="26" as="geometry" />
        </mxCell>
        <mxCell id="cXPkC3EtGzi62W7Gksbs-54" value="" style="rounded=0;whiteSpace=wrap;html=1;shadow=1;glass=0;sketch=0;fillColor=#f5f5f5;strokeColor=#666666;fontColor=#333333;fontSize=20;" vertex="1" parent="1">
          <mxGeometry x="496" y="307" width="28" height="26" as="geometry" />
        </mxCell>
        <mxCell id="cXPkC3EtGzi62W7Gksbs-55" value="" style="rounded=0;whiteSpace=wrap;html=1;shadow=1;glass=0;sketch=0;fillColor=#f5f5f5;strokeColor=#666666;fontColor=#333333;fontSize=20;" vertex="1" parent="1">
          <mxGeometry x="440" y="333" width="28" height="26" as="geometry" />
        </mxCell>
        <mxCell id="cXPkC3EtGzi62W7Gksbs-56" value="" style="rounded=0;whiteSpace=wrap;html=1;shadow=1;glass=0;sketch=0;fillColor=#f5f5f5;strokeColor=#666666;fontColor=#333333;fontSize=20;" vertex="1" parent="1">
          <mxGeometry x="468" y="333" width="28" height="26" as="geometry" />
        </mxCell>
        <mxCell id="cXPkC3EtGzi62W7Gksbs-57" value="" style="rounded=0;whiteSpace=wrap;html=1;shadow=1;glass=0;sketch=0;fillColor=#f5f5f5;strokeColor=#666666;fontColor=#333333;fontSize=20;" vertex="1" parent="1">
          <mxGeometry x="496" y="333" width="28" height="26" as="geometry" />
        </mxCell>
        <mxCell id="cXPkC3EtGzi62W7Gksbs-58" value="&lt;div style=&quot;font-size: 20px;&quot;&gt;&lt;b style=&quot;font-size: 20px;&quot;&gt;ACGGTCGGA&lt;/b&gt;&lt;/div&gt;" style="text;html=1;strokeColor=#6c8ebf;fillColor=#dae8fc;align=center;verticalAlign=middle;whiteSpace=wrap;rounded=0;fontSize=20;" vertex="1" parent="1">
          <mxGeometry x="160" y="213" width="178" height="29" as="geometry" />
        </mxCell>
        <mxCell id="cXPkC3EtGzi62W7Gksbs-59" value="&lt;b style=&quot;font-size: 20px;&quot;&gt;GCTTATTCG&lt;/b&gt;" style="text;html=1;strokeColor=#82b366;fillColor=#d5e8d4;align=center;verticalAlign=middle;whiteSpace=wrap;rounded=0;fontSize=20;" vertex="1" parent="1">
          <mxGeometry x="160" y="346" width="178" height="29" as="geometry" />
        </mxCell>
        <mxCell id="cXPkC3EtGzi62W7Gksbs-60" value="&lt;b style=&quot;font-size: 20px;&quot;&gt;&lt;font style=&quot;font-size: 20px;&quot; color=&quot;#0000CC&quot;&gt;ACGTAG&lt;/font&gt;&lt;/b&gt;" style="text;whiteSpace=wrap;html=1;fontSize=20;" vertex="1" parent="1">
          <mxGeometry x="350" y="223" width="70" height="30" as="geometry" />
        </mxCell>
        <mxCell id="cXPkC3EtGzi62W7Gksbs-61" value="&lt;b style=&quot;font-size: 20px;&quot;&gt;&lt;font style=&quot;font-size: 20px;&quot; color=&quot;#0000CC&quot;&gt;ACG ...&lt;/font&gt;&lt;/b&gt;" style="text;whiteSpace=wrap;html=1;fontSize=20;" vertex="1" parent="1">
          <mxGeometry x="350" y="249" width="70" height="30" as="geometry" />
        </mxCell>
        <mxCell id="cXPkC3EtGzi62W7Gksbs-62" value="&lt;b style=&quot;font-size: 20px;&quot;&gt;Interaction Region1 Sequence&lt;/b&gt;" style="text;html=1;strokeColor=none;fillColor=none;align=center;verticalAlign=middle;whiteSpace=wrap;rounded=0;fontSize=20;" vertex="1" parent="1">
          <mxGeometry x="140" y="255" width="228" height="20" as="geometry" />
        </mxCell>
        <mxCell id="cXPkC3EtGzi62W7Gksbs-63" value="Interaction Region2 Sequence" style="text;html=1;strokeColor=none;fillColor=none;align=center;verticalAlign=middle;whiteSpace=wrap;rounded=0;fontStyle=1;fontSize=20;" vertex="1" parent="1">
          <mxGeometry x="140" y="387" width="228" height="20" as="geometry" />
        </mxCell>
        <mxCell id="cXPkC3EtGzi62W7Gksbs-64" value="Dense layers" style="text;html=1;strokeColor=none;fillColor=none;align=center;verticalAlign=middle;whiteSpace=wrap;rounded=0;fontStyle=1;fontSize=20;" vertex="1" parent="1">
          <mxGeometry x="835.5" y="420" width="90" height="20" as="geometry" />
        </mxCell>
        <mxCell id="cXPkC3EtGzi62W7Gksbs-65" value="Flatten" style="text;html=1;strokeColor=none;fillColor=none;align=center;verticalAlign=middle;whiteSpace=wrap;rounded=0;fontStyle=1;fontSize=20;" vertex="1" parent="1">
          <mxGeometry x="750" y="420" width="21" height="20" as="geometry" />
        </mxCell>
        <mxCell id="cXPkC3EtGzi62W7Gksbs-66" style="edgeStyle=none;rounded=1;jumpSize=20;orthogonalLoop=1;jettySize=auto;html=1;entryX=0;entryY=0.5;entryDx=0;entryDy=0;strokeWidth=1;fontSize=20;" edge="1" parent="1" source="cXPkC3EtGzi62W7Gksbs-68" target="cXPkC3EtGzi62W7Gksbs-93">
          <mxGeometry relative="1" as="geometry" />
        </mxCell>
        <mxCell id="cXPkC3EtGzi62W7Gksbs-67" style="edgeStyle=none;rounded=0;orthogonalLoop=1;jettySize=auto;html=1;entryX=0;entryY=0.5;entryDx=0;entryDy=0;fontSize=20;" edge="1" parent="1" source="cXPkC3EtGzi62W7Gksbs-68" target="cXPkC3EtGzi62W7Gksbs-81">
          <mxGeometry relative="1" as="geometry" />
        </mxCell>
        <mxCell id="cXPkC3EtGzi62W7Gksbs-68" value="" style="ellipse;whiteSpace=wrap;html=1;aspect=fixed;fontSize=20;" vertex="1" parent="1">
          <mxGeometry x="831" y="210.75" width="30" height="30" as="geometry" />
        </mxCell>
        <mxCell id="cXPkC3EtGzi62W7Gksbs-69" style="edgeStyle=none;rounded=1;jumpSize=20;orthogonalLoop=1;jettySize=auto;html=1;entryX=0;entryY=0.5;entryDx=0;entryDy=0;strokeWidth=1;fontSize=20;" edge="1" parent="1" source="cXPkC3EtGzi62W7Gksbs-70" target="cXPkC3EtGzi62W7Gksbs-90">
          <mxGeometry relative="1" as="geometry" />
        </mxCell>
        <mxCell id="cXPkC3EtGzi62W7Gksbs-70" value="" style="ellipse;whiteSpace=wrap;html=1;aspect=fixed;fontSize=20;" vertex="1" parent="1">
          <mxGeometry x="831" y="250.75" width="30" height="30" as="geometry" />
        </mxCell>
        <mxCell id="cXPkC3EtGzi62W7Gksbs-71" style="edgeStyle=none;rounded=1;jumpSize=20;orthogonalLoop=1;jettySize=auto;html=1;entryX=0;entryY=0.5;entryDx=0;entryDy=0;strokeWidth=1;fontSize=20;" edge="1" parent="1" source="cXPkC3EtGzi62W7Gksbs-72" target="cXPkC3EtGzi62W7Gksbs-81">
          <mxGeometry relative="1" as="geometry" />
        </mxCell>
        <mxCell id="cXPkC3EtGzi62W7Gksbs-72" value="" style="ellipse;whiteSpace=wrap;html=1;aspect=fixed;fontSize=20;" vertex="1" parent="1">
          <mxGeometry x="831" y="290.75" width="30" height="30" as="geometry" />
        </mxCell>
        <mxCell id="cXPkC3EtGzi62W7Gksbs-73" style="edgeStyle=none;rounded=0;orthogonalLoop=1;jettySize=auto;html=1;entryX=0;entryY=0.5;entryDx=0;entryDy=0;fontSize=20;" edge="1" parent="1" source="cXPkC3EtGzi62W7Gksbs-75" target="cXPkC3EtGzi62W7Gksbs-87">
          <mxGeometry relative="1" as="geometry" />
        </mxCell>
        <mxCell id="cXPkC3EtGzi62W7Gksbs-74" style="edgeStyle=none;rounded=0;orthogonalLoop=1;jettySize=auto;html=1;entryX=0;entryY=0.5;entryDx=0;entryDy=0;fontSize=20;" edge="1" parent="1" source="cXPkC3EtGzi62W7Gksbs-75" target="cXPkC3EtGzi62W7Gksbs-93">
          <mxGeometry relative="1" as="geometry" />
        </mxCell>
        <mxCell id="cXPkC3EtGzi62W7Gksbs-75" value="" style="ellipse;whiteSpace=wrap;html=1;aspect=fixed;fontSize=20;" vertex="1" parent="1">
          <mxGeometry x="831" y="330.75" width="30" height="30" as="geometry" />
        </mxCell>
        <mxCell id="cXPkC3EtGzi62W7Gksbs-76" style="edgeStyle=none;rounded=1;jumpSize=20;orthogonalLoop=1;jettySize=auto;html=1;entryX=0;entryY=0.5;entryDx=0;entryDy=0;strokeWidth=1;fontSize=20;" edge="1" parent="1" source="cXPkC3EtGzi62W7Gksbs-78" target="cXPkC3EtGzi62W7Gksbs-84">
          <mxGeometry relative="1" as="geometry" />
        </mxCell>
        <mxCell id="cXPkC3EtGzi62W7Gksbs-77" style="edgeStyle=none;rounded=1;jumpSize=20;orthogonalLoop=1;jettySize=auto;html=1;entryX=0;entryY=0.5;entryDx=0;entryDy=0;strokeWidth=1;fontSize=20;" edge="1" parent="1" source="cXPkC3EtGzi62W7Gksbs-78" target="cXPkC3EtGzi62W7Gksbs-93">
          <mxGeometry relative="1" as="geometry" />
        </mxCell>
        <mxCell id="cXPkC3EtGzi62W7Gksbs-78" value="" style="ellipse;whiteSpace=wrap;html=1;aspect=fixed;fontSize=20;" vertex="1" parent="1">
          <mxGeometry x="831" y="370.75" width="30" height="30" as="geometry" />
        </mxCell>
        <mxCell id="cXPkC3EtGzi62W7Gksbs-79" style="edgeStyle=none;rounded=1;jumpSize=20;orthogonalLoop=1;jettySize=auto;html=1;entryX=0;entryY=0.5;entryDx=0;entryDy=0;strokeWidth=1;fontSize=20;" edge="1" parent="1" source="cXPkC3EtGzi62W7Gksbs-81" target="cXPkC3EtGzi62W7Gksbs-96">
          <mxGeometry relative="1" as="geometry" />
        </mxCell>
        <mxCell id="cXPkC3EtGzi62W7Gksbs-80" style="edgeStyle=none;rounded=1;jumpSize=20;orthogonalLoop=1;jettySize=auto;html=1;strokeWidth=1;entryX=-0.001;entryY=0.557;entryDx=0;entryDy=0;entryPerimeter=0;fontSize=20;" edge="1" parent="1" source="cXPkC3EtGzi62W7Gksbs-81" target="cXPkC3EtGzi62W7Gksbs-95">
          <mxGeometry relative="1" as="geometry">
            <mxPoint x="1011" y="305.7500000000001" as="targetPoint" />
          </mxGeometry>
        </mxCell>
        <mxCell id="cXPkC3EtGzi62W7Gksbs-81" value="" style="ellipse;whiteSpace=wrap;html=1;aspect=fixed;fontSize=20;" vertex="1" parent="1">
          <mxGeometry x="911" y="210.75" width="30" height="30" as="geometry" />
        </mxCell>
        <mxCell id="cXPkC3EtGzi62W7Gksbs-82" style="edgeStyle=none;rounded=1;jumpSize=20;orthogonalLoop=1;jettySize=auto;html=1;entryX=0;entryY=0.5;entryDx=0;entryDy=0;strokeWidth=1;fontSize=20;" edge="1" parent="1" source="cXPkC3EtGzi62W7Gksbs-84" target="cXPkC3EtGzi62W7Gksbs-95">
          <mxGeometry relative="1" as="geometry" />
        </mxCell>
        <mxCell id="cXPkC3EtGzi62W7Gksbs-83" style="edgeStyle=none;rounded=1;jumpSize=20;orthogonalLoop=1;jettySize=auto;html=1;strokeWidth=1;entryX=-0.057;entryY=0.483;entryDx=0;entryDy=0;entryPerimeter=0;fontSize=20;" edge="1" parent="1" source="cXPkC3EtGzi62W7Gksbs-84" target="cXPkC3EtGzi62W7Gksbs-96">
          <mxGeometry relative="1" as="geometry">
            <mxPoint x="1021" y="345.75" as="targetPoint" />
          </mxGeometry>
        </mxCell>
        <mxCell id="cXPkC3EtGzi62W7Gksbs-84" value="" style="ellipse;whiteSpace=wrap;html=1;aspect=fixed;fontSize=20;" vertex="1" parent="1">
          <mxGeometry x="911" y="250.75" width="30" height="30" as="geometry" />
        </mxCell>
        <mxCell id="cXPkC3EtGzi62W7Gksbs-85" style="edgeStyle=none;rounded=1;jumpSize=20;orthogonalLoop=1;jettySize=auto;html=1;entryX=0;entryY=0.5;entryDx=0;entryDy=0;strokeWidth=1;fontSize=20;" edge="1" parent="1" source="cXPkC3EtGzi62W7Gksbs-87" target="cXPkC3EtGzi62W7Gksbs-96">
          <mxGeometry relative="1" as="geometry" />
        </mxCell>
        <mxCell id="cXPkC3EtGzi62W7Gksbs-86" style="edgeStyle=none;rounded=1;jumpSize=20;orthogonalLoop=1;jettySize=auto;html=1;strokeWidth=1;entryX=0;entryY=0.5;entryDx=0;entryDy=0;fontSize=20;" edge="1" parent="1" source="cXPkC3EtGzi62W7Gksbs-87" target="cXPkC3EtGzi62W7Gksbs-95">
          <mxGeometry relative="1" as="geometry">
            <mxPoint x="1021" y="305.75" as="targetPoint" />
          </mxGeometry>
        </mxCell>
        <mxCell id="cXPkC3EtGzi62W7Gksbs-87" value="" style="ellipse;whiteSpace=wrap;html=1;aspect=fixed;fontSize=20;" vertex="1" parent="1">
          <mxGeometry x="911" y="290.75" width="30" height="30" as="geometry" />
        </mxCell>
        <mxCell id="cXPkC3EtGzi62W7Gksbs-88" style="edgeStyle=none;rounded=1;jumpSize=20;orthogonalLoop=1;jettySize=auto;html=1;entryX=0;entryY=0.5;entryDx=0;entryDy=0;strokeWidth=1;fontSize=20;" edge="1" parent="1" source="cXPkC3EtGzi62W7Gksbs-90" target="cXPkC3EtGzi62W7Gksbs-95">
          <mxGeometry relative="1" as="geometry" />
        </mxCell>
        <mxCell id="cXPkC3EtGzi62W7Gksbs-89" style="edgeStyle=none;rounded=1;jumpSize=20;orthogonalLoop=1;jettySize=auto;html=1;strokeWidth=1;entryX=0;entryY=0.5;entryDx=0;entryDy=0;fontSize=20;" edge="1" parent="1" source="cXPkC3EtGzi62W7Gksbs-90" target="cXPkC3EtGzi62W7Gksbs-96">
          <mxGeometry relative="1" as="geometry">
            <mxPoint x="1011" y="345.7500000000001" as="targetPoint" />
          </mxGeometry>
        </mxCell>
        <mxCell id="cXPkC3EtGzi62W7Gksbs-90" value="" style="ellipse;whiteSpace=wrap;html=1;aspect=fixed;fontSize=20;" vertex="1" parent="1">
          <mxGeometry x="911" y="330.75" width="30" height="30" as="geometry" />
        </mxCell>
        <mxCell id="cXPkC3EtGzi62W7Gksbs-91" style="edgeStyle=none;rounded=1;jumpSize=20;orthogonalLoop=1;jettySize=auto;html=1;strokeWidth=1;entryX=-0.05;entryY=0.538;entryDx=0;entryDy=0;entryPerimeter=0;fontSize=20;" edge="1" parent="1" source="cXPkC3EtGzi62W7Gksbs-93" target="cXPkC3EtGzi62W7Gksbs-96">
          <mxGeometry relative="1" as="geometry">
            <mxPoint x="1021" y="345.75" as="targetPoint" />
          </mxGeometry>
        </mxCell>
        <mxCell id="cXPkC3EtGzi62W7Gksbs-92" style="edgeStyle=none;rounded=1;jumpSize=20;orthogonalLoop=1;jettySize=auto;html=1;strokeWidth=1;entryX=0;entryY=0.5;entryDx=0;entryDy=0;fontSize=20;" edge="1" parent="1" source="cXPkC3EtGzi62W7Gksbs-93" target="cXPkC3EtGzi62W7Gksbs-95">
          <mxGeometry relative="1" as="geometry">
            <mxPoint x="1011" y="305.7500000000001" as="targetPoint" />
          </mxGeometry>
        </mxCell>
        <mxCell id="cXPkC3EtGzi62W7Gksbs-93" value="" style="ellipse;whiteSpace=wrap;html=1;aspect=fixed;fontSize=20;" vertex="1" parent="1">
          <mxGeometry x="911" y="370.75" width="30" height="30" as="geometry" />
        </mxCell>
        <mxCell id="cXPkC3EtGzi62W7Gksbs-94" value="&lt;div style=&quot;font-size: 20px;&quot;&gt;Output&lt;/div&gt;" style="text;html=1;strokeColor=none;fillColor=none;align=center;verticalAlign=middle;whiteSpace=wrap;rounded=0;fontStyle=1;fontSize=20;" vertex="1" parent="1">
          <mxGeometry x="1016.25" y="420" width="22.5" height="20" as="geometry" />
        </mxCell>
        <mxCell id="cXPkC3EtGzi62W7Gksbs-95" value="" style="ellipse;whiteSpace=wrap;html=1;aspect=fixed;fillColor=#dae8fc;strokeColor=#6c8ebf;fontSize=20;" vertex="1" parent="1">
          <mxGeometry x="1017" y="268.75" width="30" height="30" as="geometry" />
        </mxCell>
        <mxCell id="cXPkC3EtGzi62W7Gksbs-96" value="" style="ellipse;whiteSpace=wrap;html=1;aspect=fixed;fillColor=#d5e8d4;strokeColor=#82b366;fontSize=20;" vertex="1" parent="1">
          <mxGeometry x="1017" y="308.75" width="30" height="30" as="geometry" />
        </mxCell>
        <mxCell id="cXPkC3EtGzi62W7Gksbs-97" style="rounded=0;orthogonalLoop=1;jettySize=auto;html=1;entryX=0;entryY=0.5;entryDx=0;entryDy=0;fontSize=20;" edge="1" parent="1" source="cXPkC3EtGzi62W7Gksbs-98">
          <mxGeometry relative="1" as="geometry">
            <mxPoint x="831.0000000000055" y="305.75" as="targetPoint" />
          </mxGeometry>
        </mxCell>
        <mxCell id="cXPkC3EtGzi62W7Gksbs-98" value="" style="rounded=1;whiteSpace=wrap;html=1;shadow=1;glass=0;sketch=1;fontSize=20;" vertex="1" parent="1">
          <mxGeometry x="750" y="210.25" width="30" height="190" as="geometry" />
        </mxCell>
        <mxCell id="cXPkC3EtGzi62W7Gksbs-99" value="" style="endArrow=classic;html=1;entryX=0;entryY=0.5;entryDx=0;entryDy=0;exitX=0.989;exitY=0.292;exitDx=0;exitDy=0;exitPerimeter=0;fontSize=20;" edge="1" parent="1" source="cXPkC3EtGzi62W7Gksbs-98">
          <mxGeometry width="50" height="50" relative="1" as="geometry">
            <mxPoint x="781" y="318.75" as="sourcePoint" />
            <mxPoint x="831.0000000000055" y="265.75" as="targetPoint" />
          </mxGeometry>
        </mxCell>
        <mxCell id="cXPkC3EtGzi62W7Gksbs-100" value="" style="endArrow=classic;html=1;entryX=0;entryY=0.5;entryDx=0;entryDy=0;exitX=0.989;exitY=0.292;exitDx=0;exitDy=0;exitPerimeter=0;fontSize=20;" edge="1" parent="1">
          <mxGeometry width="50" height="50" relative="1" as="geometry">
            <mxPoint x="780" y="225.6500000000001" as="sourcePoint" />
            <mxPoint x="831.3299999999949" y="225.67000000000007" as="targetPoint" />
          </mxGeometry>
        </mxCell>
        <mxCell id="cXPkC3EtGzi62W7Gksbs-101" value="" style="endArrow=classic;html=1;entryX=0;entryY=0.5;entryDx=0;entryDy=0;exitX=0.989;exitY=0.292;exitDx=0;exitDy=0;exitPerimeter=0;fontSize=20;" edge="1" parent="1">
          <mxGeometry width="50" height="50" relative="1" as="geometry">
            <mxPoint x="780" y="345.6500000000001" as="sourcePoint" />
            <mxPoint x="831.3299999999949" y="345.6700000000001" as="targetPoint" />
          </mxGeometry>
        </mxCell>
        <mxCell id="cXPkC3EtGzi62W7Gksbs-102" value="" style="endArrow=classic;html=1;entryX=0;entryY=0.5;entryDx=0;entryDy=0;exitX=0.989;exitY=0.292;exitDx=0;exitDy=0;exitPerimeter=0;fontSize=20;" edge="1" parent="1">
          <mxGeometry width="50" height="50" relative="1" as="geometry">
            <mxPoint x="780" y="385.6500000000001" as="sourcePoint" />
            <mxPoint x="831.3299999999949" y="385.6700000000001" as="targetPoint" />
          </mxGeometry>
        </mxCell>
        <mxCell id="cXPkC3EtGzi62W7Gksbs-103" value="&lt;font color=&quot;#CC0000&quot;&gt;embedding_cnn_one_branch&lt;/font&gt;" style="text;whiteSpace=wrap;html=1;fontSize=30;fontStyle=1;fontColor=#006600;" vertex="1" parent="1">
          <mxGeometry x="395" y="140" width="310" height="40" as="geometry" />
        </mxCell>
      </root>
    </mxGraphModel>
  </diagram>
</mxfile>
